<svg xmlns="http://www.w3.org/2000/svg" viewBox="0 0 132.18 132.24"><defs><style>.cls-1{fill:#fff;}.cls-2,.cls-3{fill:none;stroke:#fff;stroke-miterlimit:10;}.cls-2{stroke-width:12px;}.cls-3{stroke-width:11px;}</style></defs><g id="Camada_2" data-name="Camada 2"><g id="Camada_1-2" data-name="Camada 1"><circle class="cls-1" cx="5.5" cy="126.74" r="5.5"/><circle class="cls-2" cx="75.91" cy="56.28" r="50.28"/><line class="cls-3" x1="40.39" y1="91.86" x2="5.36" y2="126.88"/><path class="cls-1" d="M71.12,40.77c5.8-2.11,11.2-1.45,15.86,2.72A14.29,14.29,0,0,1,91.4,59.05,63.79,63.79,0,0,1,80.65,80c-1,1.36-2.15,2.66-3.23,4a2.5,2.5,0,1,0,3.73,3.31,68.92,68.92,0,0,0,9.9-14.27,2.73,2.73,0,0,0-.67-1.51,4.42,4.42,0,0,1-.7-4.77,8.16,8.16,0,0,1,4.56-4.84A6.51,6.51,0,0,0,96,61a18.87,18.87,0,0,0-1-15.18A20.13,20.13,0,0,0,71,35.5c-.32.1-.62.26-.93.39-.23.8.39,1.24.76,1.79s.83,1.26.17,2C70.69,40.05,70.61,40.48,71.12,40.77Z"/><path class="cls-1" d="M55.24,35.72c-.51.58-1.07,1.14-1.54,1.76A2.54,2.54,0,0,0,54,41.14a2.47,2.47,0,0,0,3.61-.57A23.2,23.2,0,0,1,67,33q13.3-5.66,24.86,3c1.85,1.38,3.8,1.11,4.45-.75a2.55,2.55,0,0,0-1.14-3.05Q81.77,22,66,27.94a22.77,22.77,0,0,0-6.45,3.7c.06.75.09.77.65.7s.69-.47,1.12-.56A25.93,25.93,0,0,0,55.24,35.72Z"/><path class="cls-1" d="M73.86,56.21a54.54,54.54,0,0,1-7.52,13.51A50.9,50.9,0,0,1,52.25,82.15l-.62.38a2.51,2.51,0,1,0,2.57,4.3,53.22,53.22,0,0,0,9.25-6.66A53.56,53.56,0,0,0,76.19,63.35c-.51-.73-.89-.12-1.29.12,1.32-1.15,2-2.76,3-4.17.67-1.78,1.92-3.41,1.34-5.49-.25-.31-.69-.42-.9-.2C77.08,54.88,75.15,55,73.86,56.21Z"/><path class="cls-1" d="M102,26.47a36.71,36.71,0,0,0-11.31-6.9c-1.81-.7-3.21-.19-3.77,1.32s.24,2.65,2,3.36a32.5,32.5,0,0,1,19.48,21.26c.6,1.88,1.79,2.69,3.32,2.22s2-1.84,1.49-3.72A37.83,37.83,0,0,0,102,26.47Z"/><path class="cls-1" d="M54.12,31.16a34.13,34.13,0,0,1,16.29-8.5,32.54,32.54,0,0,1,8.75-.59c2,.13,3.17-.72,3.3-2.27s-1-2.64-2.92-2.75a37.2,37.2,0,0,0-26,8.08,11.87,11.87,0,0,0-2.11,2.52,1.42,1.42,0,0,0,.37,2.25C52.55,30.43,53,31.35,54.12,31.16Z"/><path class="cls-1" d="M95.47,73a119,119,0,0,1-6.4,10.47,93.09,93.09,0,0,1-5.87,7.29c-1.17,1.3-1.19,2.74-.1,3.76s2.63.88,3.85-.45a81,81,0,0,0,14.36-21.93c.78-1.77.18-3.37-1.4-3.81a2.24,2.24,0,0,0-2.77,1C97.49,71,96.45,72,95.47,73Z"/><path class="cls-1" d="M76.17,79.65c.67-.89,2-2.64,3.26-4.43a2.5,2.5,0,1,0-4.07-2.89,59.53,59.53,0,0,1-15.59,15.5,2.5,2.5,0,1,0,2.84,4.1A65.4,65.4,0,0,0,76.17,79.65Z"/><path class="cls-1" d="M70.77,45.24a11.42,11.42,0,0,0-4.65,6.2A40.55,40.55,0,0,1,55.54,68.57a2.9,2.9,0,0,0-1.15,2.84,2.46,2.46,0,0,0,4,1.34A43.5,43.5,0,0,0,70.31,54.56,3.27,3.27,0,0,0,70,53.37c-1.45-2.43-.71-4.6.69-6.74C71,46.23,71.47,45.74,70.77,45.24Z"/><path class="cls-1" d="M110.87,72.11a48.14,48.14,0,0,0,3.77-14.54,7.5,7.5,0,0,0,0-1.16,2.53,2.53,0,0,0-2.34-2.4,2.41,2.41,0,0,0-2.6,2.09c-.53,7.36-3.22,14-6.37,20.57a2.5,2.5,0,1,0,4.47,2.25c.88-1.74,1.61-3.55,2.41-5.33C110,72.89,110.37,72.48,110.87,72.11Z"/><path class="cls-1" d="M48.17,58.12a29.35,29.35,0,0,0,5.72-9.81c.67-2,.2-3.36-1.35-3.9s-2.71.27-3.37,2.17a23.84,23.84,0,0,1-10.9,13.11c-1.62.94-2.14,2.29-1.43,3.62s2.24,1.68,3.93.74A29.67,29.67,0,0,0,48.17,58.12Z"/><path class="cls-1" d="M55.22,63.49c.63-.85,1.72-2.17,2.67-3.59a2.47,2.47,0,0,0-.64-3.7,2.51,2.51,0,0,0-3.54.93A32.86,32.86,0,0,1,41.05,68.18c-1.64.82-2.21,2.21-1.54,3.57s2.13,1.74,3.78.94A39.65,39.65,0,0,0,55.22,63.49Z"/><path class="cls-1" d="M104.75,61.72a3,3,0,0,0,.68-1.59,28.75,28.75,0,0,0-2.52-18.22c-.62-1.27-1.51-2.06-3-1.76-1.69.33-2.42,2-1.56,3.79a24.82,24.82,0,0,1,2.54,9.84,27.07,27.07,0,0,1-.47,5.82,2.35,2.35,0,0,0,1.42,2.76A2.39,2.39,0,0,0,104.75,61.72Z"/><path class="cls-1" d="M50.62,27.74a36.3,36.3,0,0,0-9.57,15.31,2.51,2.51,0,0,0,1.49,3.45c1.44.48,2.65-.22,3.28-1.85.56-1.45,1.14-2.9,1.72-4.34a3.33,3.33,0,0,1,0-3.16c1.15-2.5,2.06-5.1,3.21-7.61C51,29,51.42,28.3,50.62,27.74Z"/><path class="cls-1" d="M85.84,63.21c1.33-3.1,2.86-6.16,2.31-9.7a8.42,8.42,0,0,0-.68-1.08c-1-1-1.65-1-2.62-.09a4.94,4.94,0,0,0-1.5,2.49c-.4,2.67-1.64,5.07-2.45,7.61a3,3,0,0,0,4,1.48A2.55,2.55,0,0,0,85.84,63.21Z"/><path class="cls-1" d="M68.79,36.39a17.22,17.22,0,0,0-8.51,7.33,4.2,4.2,0,0,0,2.25,3.05,1.1,1.1,0,0,0,1.72-.37l2.86-3.23c1-.85,1.94-1.68,2.9-2.53.65-.58,1.57-1.19,1.15-2.22S70.14,36.41,68.79,36.39Z"/><path class="cls-1" d="M52,77.82a2.51,2.51,0,0,0,.31-3.3,2.18,2.18,0,0,0-2.83-.9,35.22,35.22,0,0,0-4.81,2.76,2.17,2.17,0,0,0-.62,2.91,2.25,2.25,0,0,0,2.78,1.35A21.14,21.14,0,0,0,52,77.82Z"/><path class="cls-1" d="M70.85,53.07c1.78-4.26,4.74-5.5,9.29-3.87a1,1,0,0,0,.64-1A4.42,4.42,0,0,0,77.09,44a7,7,0,0,0-7.83,7.34C69.35,52.78,69.76,53.16,70.85,53.07Z"/><path class="cls-1" d="M81.29,50.14A7.6,7.6,0,0,1,83,53c.66.66,1.07.06,1.47-.34.64-.64,1.15-1.47,2.3-.88.37.19.75-.11.92-.52a11.11,11.11,0,0,0-8.54-7.59c-.55.42-.3.83,0,1.18a5.27,5.27,0,0,1,1.6,4A3.32,3.32,0,0,0,81.29,50.14Z"/><path class="cls-1" d="M81.29,50.14c.66-2.6-.62-4.58-2.1-6.49a11.17,11.17,0,0,0-8.42,1.59c-.45.79-.94,1.56-1.35,2.37a5.79,5.79,0,0,0,.89,7l.54-1.49a2.19,2.19,0,0,1-1-2.09c-.18-2.92,2.75-6.31,5.68-6.63S80.29,46,80.14,49.2Z"/><path class="cls-1" d="M74.28,94.11a2.53,2.53,0,0,0-.23-3.64c-1.21-1-2.83-.7-4.22.84A2.55,2.55,0,0,0,69.94,95C71.14,96,72.88,95.68,74.28,94.11Z"/><path class="cls-1" d="M40.74,53.11a2.55,2.55,0,0,0,.09-3.76c-1.11-1.05-2.66-.85-4,.52a2.56,2.56,0,0,0-.18,3.76C37.77,54.75,39.35,54.55,40.74,53.11Z"/><path class="cls-1" d="M96,61c-2.74,0-5.54,2.21-6.79,5.35-1.06,2.65-.57,4.46,1.81,6.75l.86-1.7a3.68,3.68,0,0,1-1.22-3c.09-1.07.56-1.33,1.53-.84.43.21.82.53,1.32.18A4.85,4.85,0,0,0,94.29,66c-1.39-1.49-1.39-1.63.19-2.74.45-.31.72-.78,1.17-1.08A2.32,2.32,0,0,0,96,61Z"/><path class="cls-1" d="M50.62,27.74c-1.14,3.45-2.63,6.78-4,10.12-.54,1.28-.36,2,1,2.45l.79-1.72a1.3,1.3,0,0,1,.17-1.16,25.94,25.94,0,0,0,2.16-4.55,1.15,1.15,0,0,1,.68-.79c.58.46-.46,1.36.42,1.73a18.63,18.63,0,0,0,2.36-2.66l-.1-.1c-2.85-2.57-2.88-2.93-.45-5.93A14.93,14.93,0,0,0,50.62,27.74Z"/><path class="cls-1" d="M59.24,45.23a13.13,13.13,0,0,0-1.31,2.94c-.62,1.77-.27,2.64,1.41,3.62,2-.46,2.83-2.17,3.68-3.77.37-.71-.27-1.15-.77-1.38-1-.47-1.23-2.3-2.86-1.65C59.32,45,59.29,45.15,59.24,45.23Z"/><path class="cls-1" d="M80.39,63.56a16.18,16.18,0,0,0-.9,1.82,2.46,2.46,0,0,0,1.16,3,2.4,2.4,0,0,0,3.14-.68,7.4,7.4,0,0,0,1.37-3s0-.12,0-.13C83.52,64.31,82,63.58,80.39,63.56Z"/><path class="cls-1" d="M51.76,33.82c.21-.33.4-.67.62-1s.69-.78.28-1.29-.75-1-1.34-1.05-.75.67-.94,1.11c-.84,2-1.65,3.94-2.45,5.93-.17.42-.68,1.07.4,1.05Z"/><path class="cls-1" d="M93.54,67.73c-.33-.29-.64-.61-1-.87S91.69,65.74,91,66s-.85,1.14-1,1.84a3.74,3.74,0,0,0,.59,3.07c.33.45.7.85,1.34.47A20.66,20.66,0,0,0,93.54,67.73Z"/><path class="cls-1" d="M59.24,45.23c.86-.43,1.12.35,1.47.8.56.72,1.88,1,1.83,1.89s-1.18,1.59-1.82,2.37c-.43.52-.92,1-1.38,1.5,2,.32,2.79-.14,3.36-2a34.74,34.74,0,0,1,1.55-3.4c-.94.49-1.55-.14-2.13-.69s-1.23-1.32-1.84-2A2.81,2.81,0,0,0,59.24,45.23Z"/><path class="cls-1" d="M55.24,35.72c2.68-1.2,5.16-2.74,7.7-4.19.32-.18.8-.35.56-.86s-.7-.47-1.13-.24-1.09.64-1.66.93c-.35.18-.65.66-1.15.28A17.28,17.28,0,0,0,55.24,35.72Z"/><path class="cls-1" d="M68.79,36.39c.18.16.37.31.55.48,1.65,1.56,1.66,1.84.16,3.55-.8.91-1.59,1.83-2.39,2.75a27.09,27.09,0,0,1,4-2.4c1.72-2.08.22-3.46-1.07-4.88Z"/><path class="cls-1" d="M95.65,62.2a5.24,5.24,0,0,0-2.53,1c-.53.37-1.42.76-1,1.52s.95,1.67,2.14,1.27A20.94,20.94,0,0,0,95.65,62.2Z"/><path class="cls-1" d="M87.73,51.24c-1.83-.88-3,0-4.06,1.42-.12.17-.42.21-.63.32l.31,1.85c.3-.32.61-.62.9-.94,1.82-2,1.82-2,3.9-.38A5.52,5.52,0,0,0,87.73,51.24Z"/><path class="cls-1" d="M77.92,59.3c-1.4,1.54-2.81,3.08-4.18,4.64-.32.36-1,.79-.44,1.32s.91-.17,1.28-.5c.53-.47.84-1.2,1.61-1.41A19.07,19.07,0,0,0,77.92,59.3Z"/><path class="cls-1" d="M73.86,56.21c2.09-.15,3.69-1.38,5.4-2.4-.12-.59-.59-.86-1-1.17a8.27,8.27,0,0,0-3.85,2.09Z"/><path class="cls-1" d="M80.39,63.56a5.48,5.48,0,0,0,4.77,1.12,2.63,2.63,0,0,0,.68-1.47,4.72,4.72,0,0,1-4.94-.77Z"/><path class="cls-1" d="M74.39,54.73a5.24,5.24,0,0,0,3.85-2.09C76.27,51.73,75,52.42,74.39,54.73Z"/><path class="cls-1" d="M95.47,73a3.72,3.72,0,0,0,1.7-1c1.07-.91,1.19-1.77,0-2.63A12.8,12.8,0,0,0,95.47,73Z"/><path class="cls-1" d="M110.87,72.11l-1.67-.41c-.46-.11-.92,0-1.1.42-.27.66.37.63.72.8l1.43.67Z"/></g></g></svg>