<svg id="Camada_1" data-name="Camada 1" xmlns="http://www.w3.org/2000/svg" viewBox="0 0 406.59 135.64"><defs><style>.cls-1,.cls-2{fill:none;stroke:#1d1d1b;stroke-miterlimit:10;}.cls-1{stroke-width:12px;}.cls-2{stroke-width:11px;}.cls-3,.cls-5{fill:#1d1d1b;}.cls-4{fill:#020202;}.cls-5{isolation:isolate;font-size:100px;font-family:ArialMT, Arial;}</style></defs><title>logo-dark</title><g id="Camada_2" data-name="Camada 2"><g id="Camada_1-2" data-name="Camada 1-2"><circle class="cls-1" cx="75.91" cy="57.96" r="50.28"/><line class="cls-2" x1="40.39" y1="93.54" x2="5.36" y2="128.56"/><circle class="cls-3" cx="5.5" cy="128.42" r="5.5"/><path class="cls-4" d="M71.12,42.45C76.92,40.34,82.32,41,87,45.17A14.28,14.28,0,0,1,91.4,60.73a63.83,63.83,0,0,1-10.75,21c-1,1.36-2.15,2.66-3.23,4a2.5,2.5,0,1,0,3.49,3.58,2.91,2.91,0,0,0,.24-.27,69.19,69.19,0,0,0,9.9-14.27,2.74,2.74,0,0,0-.67-1.51,4.41,4.41,0,0,1-.7-4.77,8.13,8.13,0,0,1,4.56-4.84A6.87,6.87,0,0,0,96,62.68,18.87,18.87,0,0,0,95,47.5,20.13,20.13,0,0,0,71,37.18c-.32.1-.62.26-.93.39-.23.8.39,1.24.76,1.79s.83,1.26.17,2C70.69,41.73,70.61,42.16,71.12,42.45Z"/><path class="cls-4" d="M55.24,37.4c-.51.58-1.07,1.14-1.54,1.76a2.53,2.53,0,0,0,.21,3.58l.09.08a2.47,2.47,0,0,0,3.47-.38l.14-.19A23.2,23.2,0,0,1,67,34.68q13.31-5.66,24.86,3c1.85,1.38,3.8,1.11,4.45-.75a2.56,2.56,0,0,0-1.14-3Q81.77,23.68,66,29.62a22.63,22.63,0,0,0-6.45,3.7c.06.75.09.77.65.7s.69-.47,1.12-.56A25.87,25.87,0,0,0,55.24,37.4Z"/><path class="cls-4" d="M73.86,57.89A54.22,54.22,0,0,1,66.34,71.4,50.78,50.78,0,0,1,52.25,83.83l-.62.38a2.51,2.51,0,1,0,2.29,4.47,2.61,2.61,0,0,0,.28-.17A54.69,54.69,0,0,0,76.19,65c-.51-.73-.89-.12-1.29.12,1.32-1.15,2-2.76,3-4.17.67-1.78,1.92-3.41,1.34-5.49-.25-.31-.69-.42-.9-.2C77.08,56.56,75.15,56.68,73.86,57.89Z"/><path class="cls-4" d="M102,28.15a36.52,36.52,0,0,0-11.31-6.9c-1.81-.7-3.21-.19-3.77,1.32s.24,2.65,2,3.36A32.5,32.5,0,0,1,108.4,47.19c.6,1.88,1.79,2.69,3.32,2.22s2-1.84,1.49-3.72A37.82,37.82,0,0,0,102,28.15Z"/><path class="cls-4" d="M54.12,32.84a34.13,34.13,0,0,1,16.29-8.5,32.54,32.54,0,0,1,8.75-.59c2,.13,3.17-.72,3.3-2.27s-1-2.64-2.92-2.75a37.19,37.19,0,0,0-26,8.08,11.58,11.58,0,0,0-2.11,2.52,1.42,1.42,0,0,0,0,2,2.08,2.08,0,0,0,.34.24C52.55,32.11,53,33,54.12,32.84Z"/><path class="cls-4" d="M95.47,74.68a119,119,0,0,1-6.4,10.47,91.27,91.27,0,0,1-5.87,7.29C82,93.74,82,95.18,83.1,96.2s2.63.88,3.85-.45a80.79,80.79,0,0,0,14.36-21.93c.78-1.77.18-3.37-1.4-3.81a2.23,2.23,0,0,0-2.77,1C97.49,72.68,96.45,73.68,95.47,74.68Z"/><path class="cls-4" d="M76.17,81.33c.67-.89,2-2.64,3.26-4.43a2.5,2.5,0,1,0-3.9-3.13l-.17.24a59.69,59.69,0,0,1-15.59,15.5,2.5,2.5,0,1,0,2.55,4.3l.29-.2A65.43,65.43,0,0,0,76.17,81.33Z"/><path class="cls-4" d="M70.77,46.92a11.38,11.38,0,0,0-4.65,6.2A40.55,40.55,0,0,1,55.54,70.25a2.9,2.9,0,0,0-1.15,2.84A2.46,2.46,0,0,0,57.32,75a2.51,2.51,0,0,0,1.07-.53A43.56,43.56,0,0,0,70.31,56.24,3.28,3.28,0,0,0,70,55.05c-1.45-2.43-.71-4.6.69-6.74C71,47.91,71.47,47.42,70.77,46.92Z"/><path class="cls-4" d="M110.87,73.79a48.22,48.22,0,0,0,3.77-14.54,7.49,7.49,0,0,0,0-1.16,2.53,2.53,0,0,0-2.34-2.4,2.41,2.41,0,0,0-2.6,2.09c-.53,7.36-3.22,14-6.37,20.57a2.5,2.5,0,1,0,4.47,2.25c.88-1.74,1.61-3.55,2.41-5.33C110,74.57,110.37,74.16,110.87,73.79Z"/><path class="cls-4" d="M48.17,59.8A29.35,29.35,0,0,0,53.89,50c.67-2,.2-3.36-1.35-3.9s-2.71.27-3.37,2.17a23.83,23.83,0,0,1-10.9,13.11c-1.62.94-2.14,2.29-1.43,3.62s2.24,1.68,3.93.74A29.67,29.67,0,0,0,48.17,59.8Z"/><path class="cls-4" d="M55.22,65.17c.63-.85,1.72-2.17,2.67-3.59a2.46,2.46,0,0,0-.33-3.48,1.73,1.73,0,0,0-.31-.22,2.51,2.51,0,0,0-3.46.79l-.08.14a32.86,32.86,0,0,1-12.66,11c-1.64.82-2.21,2.21-1.54,3.57s2.13,1.74,3.78.94A39.68,39.68,0,0,0,55.22,65.17Z"/><path class="cls-4" d="M104.75,63.4a3,3,0,0,0,.68-1.59,28.75,28.75,0,0,0-2.52-18.22c-.62-1.27-1.51-2.06-3-1.76-1.69.33-2.42,2-1.56,3.79a24.78,24.78,0,0,1,2.54,9.84,27.07,27.07,0,0,1-.47,5.82A2.35,2.35,0,0,0,101.84,64,2.4,2.4,0,0,0,104.75,63.4Z"/><path class="cls-4" d="M50.62,29.42a36.24,36.24,0,0,0-9.57,15.31,2.51,2.51,0,0,0,1.21,3.34l.28.11c1.44.48,2.65-.22,3.28-1.85.56-1.45,1.14-2.9,1.72-4.34a3.34,3.34,0,0,1,0-3.16c1.15-2.5,2.06-5.1,3.21-7.61C51,30.68,51.42,30,50.62,29.42Z"/><path class="cls-4" d="M85.84,64.89c1.33-3.1,2.86-6.16,2.31-9.7a8.55,8.55,0,0,0-.68-1.08c-1-1-1.65-1-2.62-.09a4.94,4.94,0,0,0-1.5,2.49c-.4,2.67-1.64,5.07-2.45,7.61a3,3,0,0,0,4,1.49h0A2.52,2.52,0,0,0,85.84,64.89Z"/><path class="cls-4" d="M68.79,38.07a17.18,17.18,0,0,0-8.51,7.33,4.19,4.19,0,0,0,2.25,3.05,1.1,1.1,0,0,0,1.55-.11,1.06,1.06,0,0,0,.17-.26l2.86-3.23c1-.85,1.94-1.68,2.9-2.53.65-.58,1.57-1.19,1.15-2.22S70.14,38.09,68.79,38.07Z"/><path class="cls-4" d="M52,79.5a2.51,2.51,0,0,0,.31-3.3,2.17,2.17,0,0,0-2.83-.9,34.78,34.78,0,0,0-4.81,2.76A2.17,2.17,0,0,0,44.05,81a2.25,2.25,0,0,0,2.78,1.35A21.1,21.1,0,0,0,52,79.5Z"/><path class="cls-4" d="M70.85,54.75c1.78-4.26,4.74-5.5,9.29-3.87a1,1,0,0,0,.64-1,4.42,4.42,0,0,0-3.69-4.2,7,7,0,0,0-7.79,6.11,7.23,7.23,0,0,0,0,1.23C69.35,54.46,69.76,54.84,70.85,54.75Z"/><path class="cls-4" d="M81.29,51.82A7.59,7.59,0,0,1,83,54.68c.66.66,1.07.06,1.47-.34.64-.64,1.15-1.47,2.3-.88.37.19.75-.11.92-.52a11.11,11.11,0,0,0-8.54-7.59c-.55.42-.3.83,0,1.18a5.26,5.26,0,0,1,1.6,4A3.41,3.41,0,0,0,81.29,51.82Z"/><path class="cls-4" d="M81.29,51.82c.66-2.6-.62-4.58-2.1-6.49a11.16,11.16,0,0,0-8.42,1.59c-.45.79-.94,1.56-1.35,2.37a5.79,5.79,0,0,0,.89,7l.54-1.49a2.21,2.21,0,0,1-1-2.09c-.18-2.92,2.75-6.31,5.68-6.63s4.76,1.6,4.61,4.8Z"/><path class="cls-4" d="M74.28,95.79a2.54,2.54,0,0,0-.16-3.58l-.07-.06c-1.21-1-2.83-.7-4.22.84a2.54,2.54,0,0,0,0,3.6l.09.09C71.14,97.68,72.88,97.36,74.28,95.79Z"/><path class="cls-4" d="M40.74,54.79a2.55,2.55,0,0,0,.24-3.6,1.14,1.14,0,0,0-.15-.16c-1.11-1.05-2.66-.85-4,.52a2.55,2.55,0,0,0-.32,3.6,1.07,1.07,0,0,0,.14.16C37.77,56.43,39.35,56.23,40.74,54.79Z"/><path class="cls-4" d="M96,62.68c-2.74,0-5.54,2.21-6.79,5.35-1.06,2.65-.57,4.46,1.81,6.75l.86-1.7a3.68,3.68,0,0,1-1.22-3c.09-1.07.56-1.33,1.53-.84.43.21.82.53,1.32.18a4.88,4.88,0,0,0,.78-1.74c-1.39-1.49-1.39-1.63.19-2.74.45-.31.72-.78,1.17-1.08A2.35,2.35,0,0,0,96,62.68Z"/><path class="cls-4" d="M50.62,29.42c-1.14,3.45-2.63,6.78-4,10.12-.54,1.28-.36,2,1,2.45l.79-1.72a1.3,1.3,0,0,1,.17-1.16,25.61,25.61,0,0,0,2.16-4.55,1.15,1.15,0,0,1,.68-.79c.58.46-.46,1.36.42,1.73a18.63,18.63,0,0,0,2.36-2.66l-.1-.1c-2.85-2.57-2.88-2.93-.45-5.93A15.1,15.1,0,0,0,50.62,29.42Z"/><path class="cls-4" d="M59.24,46.91a12.69,12.69,0,0,0-1.31,2.94c-.62,1.77-.27,2.64,1.41,3.62,2-.46,2.83-2.17,3.68-3.77.37-.71-.27-1.15-.77-1.38-1-.47-1.23-2.3-2.86-1.65C59.32,46.68,59.29,46.83,59.24,46.91Z"/><path class="cls-4" d="M80.39,65.24a15.38,15.38,0,0,0-.9,1.82,2.46,2.46,0,0,0,1.16,3,2.4,2.4,0,0,0,3.14-.68,7.46,7.46,0,0,0,1.37-3v-.13C83.52,66,82,65.26,80.39,65.24Z"/><path class="cls-4" d="M51.76,35.5c.21-.33.4-.67.62-1s.69-.78.28-1.29-.75-1-1.34-1.05-.75.67-.94,1.11c-.84,2-1.65,3.94-2.45,5.93-.17.42-.68,1.07.4,1Z"/><path class="cls-4" d="M93.54,69.41c-.33-.29-.64-.61-1-.87s-.85-1.12-1.54-.86-.85,1.14-1,1.84a3.73,3.73,0,0,0,.59,3.07c.33.45.7.85,1.34.47A21.2,21.2,0,0,0,93.54,69.41Z"/><path class="cls-4" d="M59.24,46.91c.86-.43,1.12.35,1.47.8.56.72,1.88,1,1.83,1.89S61.36,51.19,60.72,52c-.43.52-.92,1-1.38,1.5,2,.32,2.79-.14,3.36-2a34.74,34.74,0,0,1,1.55-3.4c-.94.49-1.55-.14-2.13-.69s-1.23-1.32-1.84-2A2.8,2.8,0,0,0,59.24,46.91Z"/><path class="cls-4" d="M55.24,37.4c2.68-1.2,5.16-2.74,7.7-4.19.32-.18.8-.35.56-.86s-.7-.47-1.13-.24-1.09.64-1.66.93c-.35.18-.65.66-1.15.28A17.28,17.28,0,0,0,55.24,37.4Z"/><path class="cls-4" d="M68.79,38.07c.18.16.37.31.55.48C71,40.11,71,40.39,69.5,42.1c-.8.91-1.59,1.83-2.39,2.75a27,27,0,0,1,4-2.4c1.72-2.08.22-3.46-1.07-4.88Z"/><path class="cls-4" d="M95.65,63.88a5.18,5.18,0,0,0-2.53,1c-.53.37-1.42.76-1,1.52s.95,1.67,2.14,1.27A21.53,21.53,0,0,0,95.65,63.88Z"/><path class="cls-4" d="M87.73,52.92c-1.83-.88-3,0-4.06,1.42-.12.17-.42.21-.63.32l.31,1.85c.3-.32.61-.62.9-.94,1.82-2,1.82-2,3.9-.38A5.52,5.52,0,0,0,87.73,52.92Z"/><path class="cls-4" d="M77.92,61c-1.4,1.54-2.81,3.08-4.18,4.64-.32.36-1,.79-.44,1.32s.91-.17,1.28-.5c.53-.47.84-1.2,1.61-1.41A19.3,19.3,0,0,0,77.92,61Z"/><path class="cls-4" d="M73.86,57.89c2.09-.15,3.69-1.38,5.4-2.4-.12-.59-.59-.86-1-1.17a8.27,8.27,0,0,0-3.85,2.09Z"/><path class="cls-4" d="M80.39,65.24a5.48,5.48,0,0,0,4.77,1.12,2.63,2.63,0,0,0,.68-1.47,4.71,4.71,0,0,1-4.94-.77Z"/><path class="cls-4" d="M74.39,56.41a5.25,5.25,0,0,0,3.85-2.09C76.27,53.41,75,54.1,74.39,56.41Z"/><path class="cls-4" d="M95.47,74.68a3.77,3.77,0,0,0,1.7-1c1.07-.91,1.19-1.77,0-2.63A12.82,12.82,0,0,0,95.47,74.68Z"/><path class="cls-4" d="M110.87,73.79l-1.67-.41a.89.89,0,0,0-1.1.42c-.27.66.37.63.72.8l1.43.67Z"/><circle class="cls-1" cx="75.91" cy="57.96" r="50.28"/><line class="cls-2" x1="40.39" y1="93.54" x2="5.36" y2="128.56"/><circle class="cls-3" cx="5.5" cy="128.42" r="5.5"/><path class="cls-4" d="M71.12,42.45C76.92,40.34,82.32,41,87,45.17A14.28,14.28,0,0,1,91.4,60.73a63.83,63.83,0,0,1-10.75,21c-1,1.36-2.15,2.66-3.23,4a2.5,2.5,0,1,0,3.49,3.58,2.91,2.91,0,0,0,.24-.27,69.19,69.19,0,0,0,9.9-14.27,2.74,2.74,0,0,0-.67-1.51,4.41,4.41,0,0,1-.7-4.77,8.13,8.13,0,0,1,4.56-4.84A6.87,6.87,0,0,0,96,62.68,18.87,18.87,0,0,0,95,47.5,20.13,20.13,0,0,0,71,37.18c-.32.1-.62.26-.93.39-.23.8.39,1.24.76,1.79s.83,1.26.17,2C70.69,41.73,70.61,42.16,71.12,42.45Z"/><path class="cls-4" d="M55.24,37.4c-.51.58-1.07,1.14-1.54,1.76a2.53,2.53,0,0,0,.21,3.58l.09.08a2.47,2.47,0,0,0,3.47-.38l.14-.19A23.2,23.2,0,0,1,67,34.68q13.31-5.66,24.86,3c1.85,1.38,3.8,1.11,4.45-.75a2.56,2.56,0,0,0-1.14-3Q81.77,23.68,66,29.62a22.63,22.63,0,0,0-6.45,3.7c.06.75.09.77.65.7s.69-.47,1.12-.56A25.87,25.87,0,0,0,55.24,37.4Z"/><path class="cls-4" d="M73.86,57.89A54.22,54.22,0,0,1,66.34,71.4,50.78,50.78,0,0,1,52.25,83.83l-.62.38a2.51,2.51,0,1,0,2.29,4.47,2.61,2.61,0,0,0,.28-.17A54.69,54.69,0,0,0,76.19,65c-.51-.73-.89-.12-1.29.12,1.32-1.15,2-2.76,3-4.17.67-1.78,1.92-3.41,1.34-5.49-.25-.31-.69-.42-.9-.2C77.08,56.56,75.15,56.68,73.86,57.89Z"/><path class="cls-4" d="M102,28.15a36.52,36.52,0,0,0-11.31-6.9c-1.81-.7-3.21-.19-3.77,1.32s.24,2.65,2,3.36A32.5,32.5,0,0,1,108.4,47.19c.6,1.88,1.79,2.69,3.32,2.22s2-1.84,1.49-3.72A37.82,37.82,0,0,0,102,28.15Z"/><path class="cls-4" d="M54.12,32.84a34.13,34.13,0,0,1,16.29-8.5,32.54,32.54,0,0,1,8.75-.59c2,.13,3.17-.72,3.3-2.27s-1-2.64-2.92-2.75a37.19,37.19,0,0,0-26,8.08,11.58,11.58,0,0,0-2.11,2.52,1.42,1.42,0,0,0,0,2,2.08,2.08,0,0,0,.34.24C52.55,32.11,53,33,54.12,32.84Z"/><path class="cls-4" d="M95.47,74.68a119,119,0,0,1-6.4,10.47,91.27,91.27,0,0,1-5.87,7.29C82,93.74,82,95.18,83.1,96.2s2.63.88,3.85-.45a80.79,80.79,0,0,0,14.36-21.93c.78-1.77.18-3.37-1.4-3.81a2.23,2.23,0,0,0-2.77,1C97.49,72.68,96.45,73.68,95.47,74.68Z"/><path class="cls-4" d="M76.17,81.33c.67-.89,2-2.64,3.26-4.43a2.5,2.5,0,1,0-3.9-3.13l-.17.24a59.69,59.69,0,0,1-15.59,15.5,2.5,2.5,0,1,0,2.55,4.3l.29-.2A65.43,65.43,0,0,0,76.17,81.33Z"/><path class="cls-4" d="M70.77,46.92a11.38,11.38,0,0,0-4.65,6.2A40.55,40.55,0,0,1,55.54,70.25a2.9,2.9,0,0,0-1.15,2.84A2.46,2.46,0,0,0,57.32,75a2.51,2.51,0,0,0,1.07-.53A43.56,43.56,0,0,0,70.31,56.24,3.28,3.28,0,0,0,70,55.05c-1.45-2.43-.71-4.6.69-6.74C71,47.91,71.47,47.42,70.77,46.92Z"/><path class="cls-4" d="M110.87,73.79a48.22,48.22,0,0,0,3.77-14.54,7.49,7.49,0,0,0,0-1.16,2.53,2.53,0,0,0-2.34-2.4,2.41,2.41,0,0,0-2.6,2.09c-.53,7.36-3.22,14-6.37,20.57a2.5,2.5,0,1,0,4.47,2.25c.88-1.74,1.61-3.55,2.41-5.33C110,74.57,110.37,74.16,110.87,73.79Z"/><path class="cls-4" d="M48.17,59.8A29.35,29.35,0,0,0,53.89,50c.67-2,.2-3.36-1.35-3.9s-2.71.27-3.37,2.17a23.83,23.83,0,0,1-10.9,13.11c-1.62.94-2.14,2.29-1.43,3.62s2.24,1.68,3.93.74A29.67,29.67,0,0,0,48.17,59.8Z"/><path class="cls-4" d="M55.22,65.17c.63-.85,1.72-2.17,2.67-3.59a2.46,2.46,0,0,0-.33-3.48,1.73,1.73,0,0,0-.31-.22,2.51,2.51,0,0,0-3.46.79l-.08.14a32.86,32.86,0,0,1-12.66,11c-1.64.82-2.21,2.21-1.54,3.57s2.13,1.74,3.78.94A39.68,39.68,0,0,0,55.22,65.17Z"/><path class="cls-4" d="M104.75,63.4a3,3,0,0,0,.68-1.59,28.75,28.75,0,0,0-2.52-18.22c-.62-1.27-1.51-2.06-3-1.76-1.69.33-2.42,2-1.56,3.79a24.78,24.78,0,0,1,2.54,9.84,27.07,27.07,0,0,1-.47,5.82A2.35,2.35,0,0,0,101.84,64,2.4,2.4,0,0,0,104.75,63.4Z"/><path class="cls-4" d="M50.62,29.42a36.24,36.24,0,0,0-9.57,15.31,2.51,2.51,0,0,0,1.21,3.34l.28.11c1.44.48,2.65-.22,3.28-1.85.56-1.45,1.14-2.9,1.72-4.34a3.34,3.34,0,0,1,0-3.16c1.15-2.5,2.06-5.1,3.21-7.61C51,30.68,51.42,30,50.62,29.42Z"/><path class="cls-4" d="M85.84,64.89c1.33-3.1,2.86-6.16,2.31-9.7a8.55,8.55,0,0,0-.68-1.08c-1-1-1.65-1-2.62-.09a4.94,4.94,0,0,0-1.5,2.49c-.4,2.67-1.64,5.07-2.45,7.61a3,3,0,0,0,4,1.49h0A2.52,2.52,0,0,0,85.84,64.89Z"/><path class="cls-4" d="M68.79,38.07a17.18,17.18,0,0,0-8.51,7.33,4.19,4.19,0,0,0,2.25,3.05,1.1,1.1,0,0,0,1.55-.11,1.06,1.06,0,0,0,.17-.26l2.86-3.23c1-.85,1.94-1.68,2.9-2.53.65-.58,1.57-1.19,1.15-2.22S70.14,38.09,68.79,38.07Z"/><path class="cls-4" d="M52,79.5a2.51,2.51,0,0,0,.31-3.3,2.17,2.17,0,0,0-2.83-.9,34.78,34.78,0,0,0-4.81,2.76A2.17,2.17,0,0,0,44.05,81a2.25,2.25,0,0,0,2.78,1.35A21.1,21.1,0,0,0,52,79.5Z"/><path class="cls-4" d="M70.85,54.75c1.78-4.26,4.74-5.5,9.29-3.87a1,1,0,0,0,.64-1,4.42,4.42,0,0,0-3.69-4.2,7,7,0,0,0-7.79,6.11,7.23,7.23,0,0,0,0,1.23C69.35,54.46,69.76,54.84,70.85,54.75Z"/><path class="cls-4" d="M81.29,51.82A7.59,7.59,0,0,1,83,54.68c.66.66,1.07.06,1.47-.34.64-.64,1.15-1.47,2.3-.88.37.19.75-.11.92-.52a11.11,11.11,0,0,0-8.54-7.59c-.55.42-.3.83,0,1.18a5.26,5.26,0,0,1,1.6,4A3.41,3.41,0,0,0,81.29,51.82Z"/><path class="cls-4" d="M81.29,51.82c.66-2.6-.62-4.58-2.1-6.49a11.16,11.16,0,0,0-8.42,1.59c-.45.79-.94,1.56-1.35,2.37a5.79,5.79,0,0,0,.89,7l.54-1.49a2.21,2.21,0,0,1-1-2.09c-.18-2.92,2.75-6.31,5.68-6.63s4.76,1.6,4.61,4.8Z"/><path class="cls-4" d="M74.28,95.79a2.54,2.54,0,0,0-.16-3.58l-.07-.06c-1.21-1-2.83-.7-4.22.84a2.54,2.54,0,0,0,0,3.6l.09.09C71.14,97.68,72.88,97.36,74.28,95.79Z"/><path class="cls-4" d="M40.74,54.79a2.55,2.55,0,0,0,.24-3.6,1.14,1.14,0,0,0-.15-.16c-1.11-1.05-2.66-.85-4,.52a2.55,2.55,0,0,0-.32,3.6,1.07,1.07,0,0,0,.14.16C37.77,56.43,39.35,56.23,40.74,54.79Z"/><path class="cls-4" d="M96,62.68c-2.74,0-5.54,2.21-6.79,5.35-1.06,2.65-.57,4.46,1.81,6.75l.86-1.7a3.68,3.68,0,0,1-1.22-3c.09-1.07.56-1.33,1.53-.84.43.21.82.53,1.32.18a4.88,4.88,0,0,0,.78-1.74c-1.39-1.49-1.39-1.63.19-2.74.45-.31.72-.78,1.17-1.08A2.35,2.35,0,0,0,96,62.68Z"/><path class="cls-4" d="M50.62,29.42c-1.14,3.45-2.63,6.78-4,10.12-.54,1.28-.36,2,1,2.45l.79-1.72a1.3,1.3,0,0,1,.17-1.16,25.61,25.61,0,0,0,2.16-4.55,1.15,1.15,0,0,1,.68-.79c.58.46-.46,1.36.42,1.73a18.63,18.63,0,0,0,2.36-2.66l-.1-.1c-2.85-2.57-2.88-2.93-.45-5.93A15.1,15.1,0,0,0,50.62,29.42Z"/><path class="cls-4" d="M59.24,46.91a12.69,12.69,0,0,0-1.31,2.94c-.62,1.77-.27,2.64,1.41,3.62,2-.46,2.83-2.17,3.68-3.77.37-.71-.27-1.15-.77-1.38-1-.47-1.23-2.3-2.86-1.65C59.32,46.68,59.29,46.83,59.24,46.91Z"/><path class="cls-4" d="M80.39,65.24a15.38,15.38,0,0,0-.9,1.82,2.46,2.46,0,0,0,1.16,3,2.4,2.4,0,0,0,3.14-.68,7.46,7.46,0,0,0,1.37-3v-.13C83.52,66,82,65.26,80.39,65.24Z"/><path class="cls-4" d="M51.76,35.5c.21-.33.4-.67.62-1s.69-.78.28-1.29-.75-1-1.34-1.05-.75.67-.94,1.11c-.84,2-1.65,3.94-2.45,5.93-.17.42-.68,1.07.4,1Z"/><path class="cls-4" d="M93.54,69.41c-.33-.29-.64-.61-1-.87s-.85-1.12-1.54-.86-.85,1.14-1,1.84a3.73,3.73,0,0,0,.59,3.07c.33.45.7.85,1.34.47A21.2,21.2,0,0,0,93.54,69.41Z"/><path class="cls-4" d="M59.24,46.91c.86-.43,1.12.35,1.47.8.56.72,1.88,1,1.83,1.89S61.36,51.19,60.72,52c-.43.52-.92,1-1.38,1.5,2,.32,2.79-.14,3.36-2a34.74,34.74,0,0,1,1.55-3.4c-.94.49-1.55-.14-2.13-.69s-1.23-1.32-1.84-2A2.8,2.8,0,0,0,59.24,46.91Z"/><path class="cls-4" d="M55.24,37.4c2.68-1.2,5.16-2.74,7.7-4.19.32-.18.8-.35.56-.86s-.7-.47-1.13-.24-1.09.64-1.66.93c-.35.18-.65.66-1.15.28A17.28,17.28,0,0,0,55.24,37.4Z"/><path class="cls-4" d="M68.79,38.07c.18.16.37.31.55.48C71,40.11,71,40.39,69.5,42.1c-.8.91-1.59,1.83-2.39,2.75a27,27,0,0,1,4-2.4c1.72-2.08.22-3.46-1.07-4.88Z"/><path class="cls-4" d="M95.65,63.88a5.18,5.18,0,0,0-2.53,1c-.53.37-1.42.76-1,1.52s.95,1.67,2.14,1.27A21.53,21.53,0,0,0,95.65,63.88Z"/><path class="cls-4" d="M87.73,52.92c-1.83-.88-3,0-4.06,1.42-.12.17-.42.21-.63.32l.31,1.85c.3-.32.61-.62.9-.94,1.82-2,1.82-2,3.9-.38A5.52,5.52,0,0,0,87.73,52.92Z"/><path class="cls-4" d="M77.92,61c-1.4,1.54-2.81,3.08-4.18,4.64-.32.36-1,.79-.44,1.32s.91-.17,1.28-.5c.53-.47.84-1.2,1.61-1.41A19.3,19.3,0,0,0,77.92,61Z"/><path class="cls-4" d="M73.86,57.89c2.09-.15,3.69-1.38,5.4-2.4-.12-.59-.59-.86-1-1.17a8.27,8.27,0,0,0-3.85,2.09Z"/><path class="cls-4" d="M80.39,65.24a5.48,5.48,0,0,0,4.77,1.12,2.63,2.63,0,0,0,.68-1.47,4.71,4.71,0,0,1-4.94-.77Z"/><path class="cls-4" d="M74.39,56.41a5.25,5.25,0,0,0,3.85-2.09C76.27,53.41,75,54.1,74.39,56.41Z"/><path class="cls-4" d="M95.47,74.68a3.77,3.77,0,0,0,1.7-1c1.07-.91,1.19-1.77,0-2.63A12.82,12.82,0,0,0,95.47,74.68Z"/><path class="cls-4" d="M110.87,73.79l-1.67-.41a.89.89,0,0,0-1.1.42c-.27.66.37.63.72.8l1.43.67Z"/><text class="cls-5" transform="translate(134.23 110.83)">ráculo</text><circle class="cls-1" cx="75.91" cy="57.96" r="50.28"/><line class="cls-2" x1="40.39" y1="93.54" x2="5.36" y2="128.56"/><circle class="cls-3" cx="5.5" cy="128.42" r="5.5"/><path class="cls-4" d="M71.12,42.45C76.92,40.34,82.32,41,87,45.17A14.28,14.28,0,0,1,91.4,60.73a63.83,63.83,0,0,1-10.75,21c-1,1.36-2.15,2.66-3.23,4a2.5,2.5,0,1,0,3.49,3.58,2.91,2.91,0,0,0,.24-.27,69.19,69.19,0,0,0,9.9-14.27,2.74,2.74,0,0,0-.67-1.51,4.41,4.41,0,0,1-.7-4.77,8.13,8.13,0,0,1,4.56-4.84A6.87,6.87,0,0,0,96,62.68,18.87,18.87,0,0,0,95,47.5,20.13,20.13,0,0,0,71,37.18c-.32.1-.62.26-.93.39-.23.8.39,1.24.76,1.79s.83,1.26.17,2C70.69,41.73,70.61,42.16,71.12,42.45Z"/><path class="cls-4" d="M55.24,37.4c-.51.58-1.07,1.14-1.54,1.76a2.53,2.53,0,0,0,.21,3.58l.09.08a2.47,2.47,0,0,0,3.47-.38l.14-.19A23.2,23.2,0,0,1,67,34.68q13.31-5.66,24.86,3c1.85,1.38,3.8,1.11,4.45-.75a2.56,2.56,0,0,0-1.14-3Q81.77,23.68,66,29.62a22.63,22.63,0,0,0-6.45,3.7c.06.75.09.77.65.7s.69-.47,1.12-.56A25.87,25.87,0,0,0,55.24,37.4Z"/><path class="cls-4" d="M73.86,57.89A54.22,54.22,0,0,1,66.34,71.4,50.78,50.78,0,0,1,52.25,83.83l-.62.38a2.51,2.51,0,1,0,2.29,4.47,2.61,2.61,0,0,0,.28-.17A54.69,54.69,0,0,0,76.19,65c-.51-.73-.89-.12-1.29.12,1.32-1.15,2-2.76,3-4.17.67-1.78,1.92-3.41,1.34-5.49-.25-.31-.69-.42-.9-.2C77.08,56.56,75.15,56.68,73.86,57.89Z"/><path class="cls-4" d="M102,28.15a36.52,36.52,0,0,0-11.31-6.9c-1.81-.7-3.21-.19-3.77,1.32s.24,2.65,2,3.36A32.5,32.5,0,0,1,108.4,47.19c.6,1.88,1.79,2.69,3.32,2.22s2-1.84,1.49-3.72A37.82,37.82,0,0,0,102,28.15Z"/><path class="cls-4" d="M54.12,32.84a34.13,34.13,0,0,1,16.29-8.5,32.54,32.54,0,0,1,8.75-.59c2,.13,3.17-.72,3.3-2.27s-1-2.64-2.92-2.75a37.19,37.19,0,0,0-26,8.08,11.58,11.58,0,0,0-2.11,2.52,1.42,1.42,0,0,0,0,2,2.08,2.08,0,0,0,.34.24C52.55,32.11,53,33,54.12,32.84Z"/><path class="cls-4" d="M95.47,74.68a119,119,0,0,1-6.4,10.47,91.27,91.27,0,0,1-5.87,7.29C82,93.74,82,95.18,83.1,96.2s2.63.88,3.85-.45a80.79,80.79,0,0,0,14.36-21.93c.78-1.77.18-3.37-1.4-3.81a2.23,2.23,0,0,0-2.77,1C97.49,72.68,96.45,73.68,95.47,74.68Z"/><path class="cls-4" d="M76.17,81.33c.67-.89,2-2.64,3.26-4.43a2.5,2.5,0,1,0-3.9-3.13l-.17.24a59.69,59.69,0,0,1-15.59,15.5,2.5,2.5,0,1,0,2.55,4.3l.29-.2A65.43,65.43,0,0,0,76.17,81.33Z"/><path class="cls-4" d="M70.77,46.92a11.38,11.38,0,0,0-4.65,6.2A40.55,40.55,0,0,1,55.54,70.25a2.9,2.9,0,0,0-1.15,2.84A2.46,2.46,0,0,0,57.32,75a2.51,2.51,0,0,0,1.07-.53A43.56,43.56,0,0,0,70.31,56.24,3.28,3.28,0,0,0,70,55.05c-1.45-2.43-.71-4.6.69-6.74C71,47.91,71.47,47.42,70.77,46.92Z"/><path class="cls-4" d="M110.87,73.79a48.22,48.22,0,0,0,3.77-14.54,7.49,7.49,0,0,0,0-1.16,2.53,2.53,0,0,0-2.34-2.4,2.41,2.41,0,0,0-2.6,2.09c-.53,7.36-3.22,14-6.37,20.57a2.5,2.5,0,1,0,4.47,2.25c.88-1.74,1.61-3.55,2.41-5.33C110,74.57,110.37,74.16,110.87,73.79Z"/><path class="cls-4" d="M48.17,59.8A29.35,29.35,0,0,0,53.89,50c.67-2,.2-3.36-1.35-3.9s-2.71.27-3.37,2.17a23.83,23.83,0,0,1-10.9,13.11c-1.62.94-2.14,2.29-1.43,3.62s2.24,1.68,3.93.74A29.67,29.67,0,0,0,48.17,59.8Z"/><path class="cls-4" d="M55.22,65.17c.63-.85,1.72-2.17,2.67-3.59a2.46,2.46,0,0,0-.33-3.48,1.73,1.73,0,0,0-.31-.22,2.51,2.51,0,0,0-3.46.79l-.08.14a32.86,32.86,0,0,1-12.66,11c-1.64.82-2.21,2.21-1.54,3.57s2.13,1.74,3.78.94A39.68,39.68,0,0,0,55.22,65.17Z"/><path class="cls-4" d="M104.75,63.4a3,3,0,0,0,.68-1.59,28.75,28.75,0,0,0-2.52-18.22c-.62-1.27-1.51-2.06-3-1.76-1.69.33-2.42,2-1.56,3.79a24.78,24.78,0,0,1,2.54,9.84,27.07,27.07,0,0,1-.47,5.82A2.35,2.35,0,0,0,101.84,64,2.4,2.4,0,0,0,104.75,63.4Z"/><path class="cls-4" d="M50.62,29.42a36.24,36.24,0,0,0-9.57,15.31,2.51,2.51,0,0,0,1.21,3.34l.28.11c1.44.48,2.65-.22,3.28-1.85.56-1.45,1.14-2.9,1.72-4.34a3.34,3.34,0,0,1,0-3.16c1.15-2.5,2.06-5.1,3.21-7.61C51,30.68,51.42,30,50.62,29.42Z"/><path class="cls-4" d="M85.84,64.89c1.33-3.1,2.86-6.16,2.31-9.7a8.55,8.55,0,0,0-.68-1.08c-1-1-1.65-1-2.62-.09a4.94,4.94,0,0,0-1.5,2.49c-.4,2.67-1.64,5.07-2.45,7.61a3,3,0,0,0,4,1.49h0A2.52,2.52,0,0,0,85.84,64.89Z"/><path class="cls-4" d="M68.79,38.07a17.18,17.18,0,0,0-8.51,7.33,4.19,4.19,0,0,0,2.25,3.05,1.1,1.1,0,0,0,1.55-.11,1.06,1.06,0,0,0,.17-.26l2.86-3.23c1-.85,1.94-1.68,2.9-2.53.65-.58,1.57-1.19,1.15-2.22S70.14,38.09,68.79,38.07Z"/><path class="cls-4" d="M52,79.5a2.51,2.51,0,0,0,.31-3.3,2.17,2.17,0,0,0-2.83-.9,34.78,34.78,0,0,0-4.81,2.76A2.17,2.17,0,0,0,44.05,81a2.25,2.25,0,0,0,2.78,1.35A21.1,21.1,0,0,0,52,79.5Z"/><path class="cls-4" d="M70.85,54.75c1.78-4.26,4.74-5.5,9.29-3.87a1,1,0,0,0,.64-1,4.42,4.42,0,0,0-3.69-4.2,7,7,0,0,0-7.79,6.11,7.23,7.23,0,0,0,0,1.23C69.35,54.46,69.76,54.84,70.85,54.75Z"/><path class="cls-4" d="M81.29,51.82A7.59,7.59,0,0,1,83,54.68c.66.66,1.07.06,1.47-.34.64-.64,1.15-1.47,2.3-.88.37.19.75-.11.92-.52a11.11,11.11,0,0,0-8.54-7.59c-.55.42-.3.83,0,1.18a5.26,5.26,0,0,1,1.6,4A3.41,3.41,0,0,0,81.29,51.82Z"/><path class="cls-4" d="M81.29,51.82c.66-2.6-.62-4.58-2.1-6.49a11.16,11.16,0,0,0-8.42,1.59c-.45.79-.94,1.56-1.35,2.37a5.79,5.79,0,0,0,.89,7l.54-1.49a2.21,2.21,0,0,1-1-2.09c-.18-2.92,2.75-6.31,5.68-6.63s4.76,1.6,4.61,4.8Z"/><path class="cls-4" d="M74.28,95.79a2.54,2.54,0,0,0-.16-3.58l-.07-.06c-1.21-1-2.83-.7-4.22.84a2.54,2.54,0,0,0,0,3.6l.09.09C71.14,97.68,72.88,97.36,74.28,95.79Z"/><path class="cls-4" d="M40.74,54.79a2.55,2.55,0,0,0,.24-3.6,1.14,1.14,0,0,0-.15-.16c-1.11-1.05-2.66-.85-4,.52a2.55,2.55,0,0,0-.32,3.6,1.07,1.07,0,0,0,.14.16C37.77,56.43,39.35,56.23,40.74,54.79Z"/><path class="cls-4" d="M96,62.68c-2.74,0-5.54,2.21-6.79,5.35-1.06,2.65-.57,4.46,1.81,6.75l.86-1.7a3.68,3.68,0,0,1-1.22-3c.09-1.07.56-1.33,1.53-.84.43.21.82.53,1.32.18a4.88,4.88,0,0,0,.78-1.74c-1.39-1.49-1.39-1.63.19-2.74.45-.31.72-.78,1.17-1.08A2.35,2.35,0,0,0,96,62.68Z"/><path class="cls-4" d="M50.62,29.42c-1.14,3.45-2.63,6.78-4,10.12-.54,1.28-.36,2,1,2.45l.79-1.72a1.3,1.3,0,0,1,.17-1.16,25.61,25.61,0,0,0,2.16-4.55,1.15,1.15,0,0,1,.68-.79c.58.46-.46,1.36.42,1.73a18.63,18.63,0,0,0,2.36-2.66l-.1-.1c-2.85-2.57-2.88-2.93-.45-5.93A15.1,15.1,0,0,0,50.62,29.42Z"/><path class="cls-4" d="M59.24,46.91a12.69,12.69,0,0,0-1.31,2.94c-.62,1.77-.27,2.64,1.41,3.62,2-.46,2.83-2.17,3.68-3.77.37-.71-.27-1.15-.77-1.38-1-.47-1.23-2.3-2.86-1.65C59.32,46.68,59.29,46.83,59.24,46.91Z"/><path class="cls-4" d="M80.39,65.24a15.38,15.38,0,0,0-.9,1.82,2.46,2.46,0,0,0,1.16,3,2.4,2.4,0,0,0,3.14-.68,7.46,7.46,0,0,0,1.37-3v-.13C83.52,66,82,65.26,80.39,65.24Z"/><path class="cls-4" d="M51.76,35.5c.21-.33.4-.67.62-1s.69-.78.28-1.29-.75-1-1.34-1.05-.75.67-.94,1.11c-.84,2-1.65,3.94-2.45,5.93-.17.42-.68,1.07.4,1Z"/><path class="cls-4" d="M93.54,69.41c-.33-.29-.64-.61-1-.87s-.85-1.12-1.54-.86-.85,1.14-1,1.84a3.73,3.73,0,0,0,.59,3.07c.33.45.7.85,1.34.47A21.2,21.2,0,0,0,93.54,69.41Z"/><path class="cls-4" d="M59.24,46.91c.86-.43,1.12.35,1.47.8.56.72,1.88,1,1.83,1.89S61.36,51.19,60.72,52c-.43.52-.92,1-1.38,1.5,2,.32,2.79-.14,3.36-2a34.74,34.74,0,0,1,1.55-3.4c-.94.49-1.55-.14-2.13-.69s-1.23-1.32-1.84-2A2.8,2.8,0,0,0,59.24,46.91Z"/><path class="cls-4" d="M55.24,37.4c2.68-1.2,5.16-2.74,7.7-4.19.32-.18.8-.35.56-.86s-.7-.47-1.13-.24-1.09.64-1.66.93c-.35.18-.65.66-1.15.28A17.28,17.28,0,0,0,55.24,37.4Z"/><path class="cls-4" d="M68.79,38.07c.18.16.37.31.55.48C71,40.11,71,40.39,69.5,42.1c-.8.91-1.59,1.83-2.39,2.75a27,27,0,0,1,4-2.4c1.72-2.08.22-3.46-1.07-4.88Z"/><path class="cls-4" d="M95.65,63.88a5.18,5.18,0,0,0-2.53,1c-.53.37-1.42.76-1,1.52s.95,1.67,2.14,1.27A21.53,21.53,0,0,0,95.65,63.88Z"/><path class="cls-4" d="M87.73,52.92c-1.83-.88-3,0-4.06,1.42-.12.17-.42.21-.63.32l.31,1.85c.3-.32.61-.62.9-.94,1.82-2,1.82-2,3.9-.38A5.52,5.52,0,0,0,87.73,52.92Z"/><path class="cls-4" d="M77.92,61c-1.4,1.54-2.81,3.08-4.18,4.64-.32.36-1,.79-.44,1.32s.91-.17,1.28-.5c.53-.47.84-1.2,1.61-1.41A19.3,19.3,0,0,0,77.92,61Z"/><path class="cls-4" d="M73.86,57.89c2.09-.15,3.69-1.38,5.4-2.4-.12-.59-.59-.86-1-1.17a8.27,8.27,0,0,0-3.85,2.09Z"/><path class="cls-4" d="M80.39,65.24a5.48,5.48,0,0,0,4.77,1.12,2.63,2.63,0,0,0,.68-1.47,4.71,4.71,0,0,1-4.94-.77Z"/><path class="cls-4" d="M74.39,56.41a5.25,5.25,0,0,0,3.85-2.09C76.27,53.41,75,54.1,74.39,56.41Z"/><path class="cls-4" d="M95.47,74.68a3.77,3.77,0,0,0,1.7-1c1.07-.91,1.19-1.77,0-2.63A12.82,12.82,0,0,0,95.47,74.68Z"/><path class="cls-4" d="M110.87,73.79l-1.67-.41a.89.89,0,0,0-1.1.42c-.27.66.37.63.72.8l1.43.67Z"/><text class="cls-5" transform="translate(134.23 110.83)">rácul</text><circle class="cls-1" cx="75.91" cy="57.96" r="50.28"/><line class="cls-2" x1="40.39" y1="93.54" x2="5.36" y2="128.56"/><circle class="cls-3" cx="5.5" cy="128.42" r="5.5"/><path class="cls-4" d="M71.12,42.45C76.92,40.34,82.32,41,87,45.17A14.28,14.28,0,0,1,91.4,60.73a63.83,63.83,0,0,1-10.75,21c-1,1.36-2.15,2.66-3.23,4a2.5,2.5,0,1,0,3.49,3.58,2.91,2.91,0,0,0,.24-.27,69.19,69.19,0,0,0,9.9-14.27,2.74,2.74,0,0,0-.67-1.51,4.41,4.41,0,0,1-.7-4.77,8.13,8.13,0,0,1,4.56-4.84A6.87,6.87,0,0,0,96,62.68,18.87,18.87,0,0,0,95,47.5,20.13,20.13,0,0,0,71,37.18c-.32.1-.62.26-.93.39-.23.8.39,1.24.76,1.79s.83,1.26.17,2C70.69,41.73,70.61,42.16,71.12,42.45Z"/><path class="cls-4" d="M55.24,37.4c-.51.58-1.07,1.14-1.54,1.76a2.53,2.53,0,0,0,.21,3.58l.09.08a2.47,2.47,0,0,0,3.47-.38l.14-.19A23.2,23.2,0,0,1,67,34.68q13.31-5.66,24.86,3c1.85,1.38,3.8,1.11,4.45-.75a2.56,2.56,0,0,0-1.14-3Q81.77,23.68,66,29.62a22.63,22.63,0,0,0-6.45,3.7c.06.75.09.77.65.7s.69-.47,1.12-.56A25.87,25.87,0,0,0,55.24,37.4Z"/><path class="cls-4" d="M73.86,57.89A54.22,54.22,0,0,1,66.34,71.4,50.78,50.78,0,0,1,52.25,83.83l-.62.38a2.51,2.51,0,1,0,2.29,4.47,2.61,2.61,0,0,0,.28-.17A54.69,54.69,0,0,0,76.19,65c-.51-.73-.89-.12-1.29.12,1.32-1.15,2-2.76,3-4.17.67-1.78,1.92-3.41,1.34-5.49-.25-.31-.69-.42-.9-.2C77.08,56.56,75.15,56.68,73.86,57.89Z"/><path class="cls-4" d="M102,28.15a36.52,36.52,0,0,0-11.31-6.9c-1.81-.7-3.21-.19-3.77,1.32s.24,2.65,2,3.36A32.5,32.5,0,0,1,108.4,47.19c.6,1.88,1.79,2.69,3.32,2.22s2-1.84,1.49-3.72A37.82,37.82,0,0,0,102,28.15Z"/><path class="cls-4" d="M54.12,32.84a34.13,34.13,0,0,1,16.29-8.5,32.54,32.54,0,0,1,8.75-.59c2,.13,3.17-.72,3.3-2.27s-1-2.64-2.92-2.75a37.19,37.19,0,0,0-26,8.08,11.58,11.58,0,0,0-2.11,2.52,1.42,1.42,0,0,0,0,2,2.08,2.08,0,0,0,.34.24C52.55,32.11,53,33,54.12,32.84Z"/><path class="cls-4" d="M95.47,74.68a119,119,0,0,1-6.4,10.47,91.27,91.27,0,0,1-5.87,7.29C82,93.74,82,95.18,83.1,96.2s2.63.88,3.85-.45a80.79,80.79,0,0,0,14.36-21.93c.78-1.77.18-3.37-1.4-3.81a2.23,2.23,0,0,0-2.77,1C97.49,72.68,96.45,73.68,95.47,74.68Z"/><path class="cls-4" d="M76.17,81.33c.67-.89,2-2.64,3.26-4.43a2.5,2.5,0,1,0-3.9-3.13l-.17.24a59.69,59.69,0,0,1-15.59,15.5,2.5,2.5,0,1,0,2.55,4.3l.29-.2A65.43,65.43,0,0,0,76.17,81.33Z"/><path class="cls-4" d="M70.77,46.92a11.38,11.38,0,0,0-4.65,6.2A40.55,40.55,0,0,1,55.54,70.25a2.9,2.9,0,0,0-1.15,2.84A2.46,2.46,0,0,0,57.32,75a2.51,2.51,0,0,0,1.07-.53A43.56,43.56,0,0,0,70.31,56.24,3.28,3.28,0,0,0,70,55.05c-1.45-2.43-.71-4.6.69-6.74C71,47.91,71.47,47.42,70.77,46.92Z"/><path class="cls-4" d="M110.87,73.79a48.22,48.22,0,0,0,3.77-14.54,7.49,7.49,0,0,0,0-1.16,2.53,2.53,0,0,0-2.34-2.4,2.41,2.41,0,0,0-2.6,2.09c-.53,7.36-3.22,14-6.37,20.57a2.5,2.5,0,1,0,4.47,2.25c.88-1.74,1.61-3.55,2.41-5.33C110,74.57,110.37,74.16,110.87,73.79Z"/><path class="cls-4" d="M48.17,59.8A29.35,29.35,0,0,0,53.89,50c.67-2,.2-3.36-1.35-3.9s-2.71.27-3.37,2.17a23.83,23.83,0,0,1-10.9,13.11c-1.62.94-2.14,2.29-1.43,3.62s2.24,1.68,3.93.74A29.67,29.67,0,0,0,48.17,59.8Z"/><path class="cls-4" d="M55.22,65.17c.63-.85,1.72-2.17,2.67-3.59a2.46,2.46,0,0,0-.33-3.48,1.73,1.73,0,0,0-.31-.22,2.51,2.51,0,0,0-3.46.79l-.08.14a32.86,32.86,0,0,1-12.66,11c-1.64.82-2.21,2.21-1.54,3.57s2.13,1.74,3.78.94A39.68,39.68,0,0,0,55.22,65.17Z"/><path class="cls-4" d="M104.75,63.4a3,3,0,0,0,.68-1.59,28.75,28.75,0,0,0-2.52-18.22c-.62-1.27-1.51-2.06-3-1.76-1.69.33-2.42,2-1.56,3.79a24.78,24.78,0,0,1,2.54,9.84,27.07,27.07,0,0,1-.47,5.82A2.35,2.35,0,0,0,101.84,64,2.4,2.4,0,0,0,104.75,63.4Z"/><path class="cls-4" d="M50.62,29.42a36.24,36.24,0,0,0-9.57,15.31,2.51,2.51,0,0,0,1.21,3.34l.28.11c1.44.48,2.65-.22,3.28-1.85.56-1.45,1.14-2.9,1.72-4.34a3.34,3.34,0,0,1,0-3.16c1.15-2.5,2.06-5.1,3.21-7.61C51,30.68,51.42,30,50.62,29.42Z"/><path class="cls-4" d="M85.84,64.89c1.33-3.1,2.86-6.16,2.31-9.7a8.55,8.55,0,0,0-.68-1.08c-1-1-1.65-1-2.62-.09a4.94,4.94,0,0,0-1.5,2.49c-.4,2.67-1.64,5.07-2.45,7.61a3,3,0,0,0,4,1.49h0A2.52,2.52,0,0,0,85.84,64.89Z"/><path class="cls-4" d="M68.79,38.07a17.18,17.18,0,0,0-8.51,7.33,4.19,4.19,0,0,0,2.25,3.05,1.1,1.1,0,0,0,1.55-.11,1.06,1.06,0,0,0,.17-.26l2.86-3.23c1-.85,1.94-1.68,2.9-2.53.65-.58,1.57-1.19,1.15-2.22S70.14,38.09,68.79,38.07Z"/><path class="cls-4" d="M52,79.5a2.51,2.51,0,0,0,.31-3.3,2.17,2.17,0,0,0-2.83-.9,34.78,34.78,0,0,0-4.81,2.76A2.17,2.17,0,0,0,44.05,81a2.25,2.25,0,0,0,2.78,1.35A21.1,21.1,0,0,0,52,79.5Z"/><path class="cls-4" d="M70.85,54.75c1.78-4.26,4.74-5.5,9.29-3.87a1,1,0,0,0,.64-1,4.42,4.42,0,0,0-3.69-4.2,7,7,0,0,0-7.79,6.11,7.23,7.23,0,0,0,0,1.23C69.35,54.46,69.76,54.84,70.85,54.75Z"/><path class="cls-4" d="M81.29,51.82A7.59,7.59,0,0,1,83,54.68c.66.66,1.07.06,1.47-.34.64-.64,1.15-1.47,2.3-.88.37.19.75-.11.92-.52a11.11,11.11,0,0,0-8.54-7.59c-.55.42-.3.83,0,1.18a5.26,5.26,0,0,1,1.6,4A3.41,3.41,0,0,0,81.29,51.82Z"/><path class="cls-4" d="M81.29,51.82c.66-2.6-.62-4.58-2.1-6.49a11.16,11.16,0,0,0-8.42,1.59c-.45.79-.94,1.56-1.35,2.37a5.79,5.79,0,0,0,.89,7l.54-1.49a2.21,2.21,0,0,1-1-2.09c-.18-2.92,2.75-6.31,5.68-6.63s4.76,1.6,4.61,4.8Z"/><path class="cls-4" d="M74.28,95.79a2.54,2.54,0,0,0-.16-3.58l-.07-.06c-1.21-1-2.83-.7-4.22.84a2.54,2.54,0,0,0,0,3.6l.09.09C71.14,97.68,72.88,97.36,74.28,95.79Z"/><path class="cls-4" d="M40.74,54.79a2.55,2.55,0,0,0,.24-3.6,1.14,1.14,0,0,0-.15-.16c-1.11-1.05-2.66-.85-4,.52a2.55,2.55,0,0,0-.32,3.6,1.07,1.07,0,0,0,.14.16C37.77,56.43,39.35,56.23,40.74,54.79Z"/><path class="cls-4" d="M96,62.68c-2.74,0-5.54,2.21-6.79,5.35-1.06,2.65-.57,4.46,1.81,6.75l.86-1.7a3.68,3.68,0,0,1-1.22-3c.09-1.07.56-1.33,1.53-.84.43.21.82.53,1.32.18a4.88,4.88,0,0,0,.78-1.74c-1.39-1.49-1.39-1.63.19-2.74.45-.31.72-.78,1.17-1.08A2.35,2.35,0,0,0,96,62.68Z"/><path class="cls-4" d="M50.62,29.42c-1.14,3.45-2.63,6.78-4,10.12-.54,1.28-.36,2,1,2.45l.79-1.72a1.3,1.3,0,0,1,.17-1.16,25.61,25.61,0,0,0,2.16-4.55,1.15,1.15,0,0,1,.68-.79c.58.46-.46,1.36.42,1.73a18.63,18.63,0,0,0,2.36-2.66l-.1-.1c-2.85-2.57-2.88-2.93-.45-5.93A15.1,15.1,0,0,0,50.62,29.42Z"/><path class="cls-4" d="M59.24,46.91a12.69,12.69,0,0,0-1.31,2.94c-.62,1.77-.27,2.64,1.41,3.62,2-.46,2.83-2.17,3.68-3.77.37-.71-.27-1.15-.77-1.38-1-.47-1.23-2.3-2.86-1.65C59.32,46.68,59.29,46.83,59.24,46.91Z"/><path class="cls-4" d="M80.39,65.24a15.38,15.38,0,0,0-.9,1.82,2.46,2.46,0,0,0,1.16,3,2.4,2.4,0,0,0,3.14-.68,7.46,7.46,0,0,0,1.37-3v-.13C83.52,66,82,65.26,80.39,65.24Z"/><path class="cls-4" d="M51.76,35.5c.21-.33.4-.67.62-1s.69-.78.28-1.29-.75-1-1.34-1.05-.75.67-.94,1.11c-.84,2-1.65,3.94-2.45,5.93-.17.42-.68,1.07.4,1Z"/><path class="cls-4" d="M93.54,69.41c-.33-.29-.64-.61-1-.87s-.85-1.12-1.54-.86-.85,1.14-1,1.84a3.73,3.73,0,0,0,.59,3.07c.33.45.7.85,1.34.47A21.2,21.2,0,0,0,93.54,69.41Z"/><path class="cls-4" d="M59.24,46.91c.86-.43,1.12.35,1.47.8.56.72,1.88,1,1.83,1.89S61.36,51.19,60.72,52c-.43.52-.92,1-1.38,1.5,2,.32,2.79-.14,3.36-2a34.74,34.74,0,0,1,1.55-3.4c-.94.49-1.55-.14-2.13-.69s-1.23-1.32-1.84-2A2.8,2.8,0,0,0,59.24,46.91Z"/><path class="cls-4" d="M55.24,37.4c2.68-1.2,5.16-2.74,7.7-4.19.32-.18.8-.35.56-.86s-.7-.47-1.13-.24-1.09.64-1.66.93c-.35.18-.65.66-1.15.28A17.28,17.28,0,0,0,55.24,37.4Z"/><path class="cls-4" d="M68.79,38.07c.18.16.37.31.55.48C71,40.11,71,40.39,69.5,42.1c-.8.91-1.59,1.83-2.39,2.75a27,27,0,0,1,4-2.4c1.72-2.08.22-3.46-1.07-4.88Z"/><path class="cls-4" d="M95.65,63.88a5.18,5.18,0,0,0-2.53,1c-.53.37-1.42.76-1,1.52s.95,1.67,2.14,1.27A21.53,21.53,0,0,0,95.65,63.88Z"/><path class="cls-4" d="M87.73,52.92c-1.83-.88-3,0-4.06,1.42-.12.17-.42.21-.63.32l.31,1.85c.3-.32.61-.62.9-.94,1.82-2,1.82-2,3.9-.38A5.52,5.52,0,0,0,87.73,52.92Z"/><path class="cls-4" d="M77.92,61c-1.4,1.54-2.81,3.08-4.18,4.64-.32.36-1,.79-.44,1.32s.91-.17,1.28-.5c.53-.47.84-1.2,1.61-1.41A19.3,19.3,0,0,0,77.92,61Z"/><path class="cls-4" d="M73.86,57.89c2.09-.15,3.69-1.38,5.4-2.4-.12-.59-.59-.86-1-1.17a8.27,8.27,0,0,0-3.85,2.09Z"/><path class="cls-4" d="M80.39,65.24a5.48,5.48,0,0,0,4.77,1.12,2.63,2.63,0,0,0,.68-1.47,4.71,4.71,0,0,1-4.94-.77Z"/><path class="cls-4" d="M74.39,56.41a5.25,5.25,0,0,0,3.85-2.09C76.27,53.41,75,54.1,74.39,56.41Z"/><path class="cls-4" d="M95.47,74.68a3.77,3.77,0,0,0,1.7-1c1.07-.91,1.19-1.77,0-2.63A12.82,12.82,0,0,0,95.47,74.68Z"/><path class="cls-4" d="M110.87,73.79l-1.67-.41a.89.89,0,0,0-1.1.42c-.27.66.37.63.72.8l1.43.67Z"/></g></g></svg>